# xmcd
#
# Track frame offsets:
#	150
#	1925
#	18100
#	37116
#	59049
#	70437
#	84906
#	100287
#	115566
#	133491
#	151647
#	170989
#	192749
#
# Disc length: 2709 seconds
#
# Revision: 1
# Processed by: cddbd v1.4PL0 Copyright (c) Steve Scherf et al.
# Submitted via: audiograbber 1.81.03
#
DISCID=b20a930d
DTITLE=Guitarist Magazine - Guitarist Blues Jam
DYEAR=2002
DGENRE=Blues
TTITLE0=Tuning Notes
TTITLE1=Signpost Blues (Key of C)
TTITLE2=District Bluers (Key of D)
TTITLE3=BB Shuffle (Key of A)
TTITLE4=Light And Easy (Key of A)
TTITLE5=Chill Factor Blues  (Key of C minor)
TTITLE6=Ezy Blues (Key of E)
TTITLE7=Shanksy's Pony Blues (Key of E)
TTITLE8=Whiteout (Key of D minor)
TTITLE9=Lost Buzz Blues (Key of B Minor)
TTITLE10=Highway Jam (Key of A)
TTITLE11=Irresistible Blues (Key of C)
TTITLE12=Latin Blues (Key of D Minor)
EXTD=Guitar Jam Tracks
EXTT0=
EXTT1=
EXTT2=
EXTT3=
EXTT4=
EXTT5=
EXTT6=
EXTT7=
EXTT8=
EXTT9=
EXTT10=
EXTT11=
EXTT12=
PLAYORDER=
